<svg version="1.1" viewBox="92 36 116 100" xmlns="http://www.w3.org/2000/svg"><defs><clipPath id="clip-1"><rect x="0" y="0" transform="scale(0.14648,0.14654)" width="2048" height="1151" fill="none"/></clipPath></defs><g clip-path="url(#clip-1)" fill="none" fill-rule="nonzero" stroke="none" stroke-width="1" stroke-linecap="butt" stroke-linejoin="miter" stroke-miterlimit="10"><path d="M193.66846,90.63481l3.104,0.06946c-0.46143,1.13758 -2.02881,3.6818 -2.70117,4.84004l-5.41553,9.30363l-7.60693,13.1922c-1.41504,2.48003 -2.80078,4.98908 -4.28174,7.42998c-2.96777,4.89133 -6.53613,4.53803 -11.47998,4.52601l-8.45654,-0.02447l-7.63477,0.0252c-5.10337,0.02579 -8.504,0.28736 -11.34771,-4.82349c-0.87026,-1.56401 -1.87925,-3.27882 -2.77559,-4.84898l-6.14927,-10.6937c-1.07432,-1.86295 -2.49375,-4.49289 -3.67852,-6.23158c-0.38994,-0.69079 -0.94966,-1.55976 -1.10435,-2.31415c0.17314,-1.2809 2.14893,-4.06632 2.80869,-5.30194c0.52295,-0.97918 1.88936,-3.68502 2.9543,-3.86321c1.70112,1.16469 11.26772,19.52679 13.2583,22.39589c4.29536,6.19055 1.28774,5.95667 9.86616,5.95462l10.37549,0.00703c1.42822,0.00029 3.99463,0.27271 5.23242,-0.44738c1.27441,-0.74164 11.60449,-19.35695 13.5498,-22.74714c0.92578,-1.61281 2.34814,-4.70845 3.63135,-5.93381c0.96094,-0.91675 6.37793,-0.52153 7.85156,-0.51421z" fill="#4b7cf5"/><path d="M126.9583,42.26631c1.85874,-0.18449 8.65942,-0.11327 10.87163,-0.07503c4.42573,0.07649 10.39761,-0.2286 14.67056,0.0274c0.89648,0.04484 1.78418,0.19446 2.64551,0.44563c3.27832,0.96335 5.07861,4.95273 6.66943,7.73449l4.39307,7.63308c4.37988,7.58795 9.36621,15.75736 13.47656,23.40906c-2.63672,0.12236 -5.9751,0.02433 -8.66455,0.0211c-0.7207,0.05041 -1.99072,0.14698 -2.40967,-0.45984c-5.61914,-8.15066 -11.5957,-20.86089 -17.12549,-28.60856c-0.9668,-1.35637 -31.89888,0.26743 -33.29824,-0.93609c0.06255,-1.18931 3.01655,-5.83636 4.0103,-6.89233c1.42295,-1.51214 2.72065,-2.20278 4.76089,-2.29891z" fill="#3d5a8a"/><path d="M123.5811,72.26773c3.21738,-0.19416 7.73086,-0.02022 11.12651,-0.08822c-0.43477,1.31006 -3.63076,6.58796 -4.46895,8.02947l-9.54272,16.46456c-1.27544,2.1953 -2.65781,3.83142 -1.22358,6.3346c1.26914,2.21509 2.59233,4.40482 3.87334,6.61302l8.2333,14.24948c0.67866,1.17246 2.92017,4.76458 3.17212,5.9196c-1.67227,0.45779 -6.01846,0.21028 -7.82446,0.08587c-4.33696,-0.29865 -5.90171,-3.89194 -7.846,-7.25867l-3.96357,-6.85862l-4.06802,-7.0311c-0.99668,-1.7151 -2.07158,-3.40469 -2.81221,-5.25065c-0.57466,-1.43227 -0.55122,-2.24923 -0.34351,-3.77412c0.18457,-1.35505 0.83086,-2.31488 1.48433,-3.48177c4.47393,-7.71456 8.89263,-15.46678 13.42837,-23.14441c0.18545,-0.31389 0.48208,-0.59407 0.77505,-0.80904z" fill="#4b7cf5"/><path d="M126.52808,57.22152l13.40933,-0.02183c1.5022,-0.00659 8.12607,-0.35184 8.86582,0.67994c1.91016,2.66364 3.52002,5.95492 5.23828,8.80173l-20.73765,-0.02022c-3.54097,-0.00542 -8.0105,-0.22508 -11.45244,0.29601c-1.78374,0.27007 -3.82104,4.68823 -4.80967,6.43278l-4.54072,7.9754c-2.51455,4.09035 -4.82754,8.41267 -7.29214,12.54127c-0.42407,0.71028 -0.54858,1.13289 -1.2772,1.31959c-1.68618,-0.37309 -4.9355,-7.26351 -4.96392,-9.14669c0.08848,-2.6547 2.0165,-5.27527 3.29268,-7.53432c3.18413,-5.63634 6.4623,-11.23018 9.7248,-16.81538c0.90439,-1.54804 2.26172,-3.49965 4.04224,-3.97209c3.09961,-0.82267 7.29214,-0.5123 10.50059,-0.53619z" fill="#3d5a8a"/><path d="M168.0835,42.13355c6.87744,-0.74076 8.7876,4.58008 11.62354,9.53384l5.84326,10.14198l6.89795,11.87832c1.28906,2.21538 3.32227,5.54959 4.29932,7.77288c-1.70215,0.02711 -3.47461,0.00645 -5.18262,0.00835c-6.70312,0.00747 -5.18994,0.80479 -8.5957,-5.10675l-5.11523,-8.90241c-4.81641,-8.35288 -9.87158,-16.85348 -14.56787,-25.25399c1.59961,0.00821 3.19922,-0.01597 4.79736,-0.07224z" fill="#4b7cf5"/><path d="M169.74902,90.61327l9.81592,0.06345c-0.52881,1.35842 -1.49707,2.87481 -2.24268,4.16435l-3.55518,6.14996l-4.62158,8.0069c-0.9126,1.59127 -2.55469,4.92694 -3.95068,5.90348c-3.1377,0.17585 -7.78418,0.02096 -11.02002,0.0129c-1.4209,0.01817 -4.70654,0.4427 -5.31885,-0.78223c-0.53027,-1.05992 -4.91147,-7.76043 -4.78154,-8.54324c1.3418,-0.68742 12.44414,0.24868 14.76445,-0.24926c2.12988,-0.4572 2.72754,-2.52956 3.76025,-4.23733c1.86768,-3.09168 3.45996,-6.31731 5.37598,-9.37382c0.49219,-0.78369 0.9082,-0.96042 1.77393,-1.11516z" fill="#3d5a8a"/></g></svg>
